<svg width="32px" height="32px" viewBox="0 0 500 200" fill="none" xmlns="http://www.w3.org/2000/svg">
<path d="M213.188 89V82.1641L219.242 80.9922V40.1719L213.188 39V32.125H230.805L255.57 71.5781L255.805 71.5391V40.1719L248.539 39V32.125H272.094V39L266 40.1719V89H254.984L229.672 49.9375L229.438 49.9766V80.9922L236.742 82.1641V89H213.188ZM275.844 89V82.1641L281.898 80.9922V40.1719L275.844 39V32.125H319.984V47.4766H311.234L310.727 40.9141H293.305V55.2109H312.562V64H293.305V80.25H311.664L312.172 73.4531H320.844V89H275.844ZM340.805 89V82.1641L346.898 80.9922V40.9141H336.547L335.922 47.7109H327.289V32.125H378.031V47.7109H369.359L368.734 40.9141H358.305V80.9922L364.438 82.1641V89H340.805ZM382.016 89V82.1641L388.07 80.9922V40.1719L382.016 39V32.125H426.156V47.4766H417.406L416.898 40.9141H399.477V55.2109H418.734V64H399.477V80.25H417.836L418.344 73.4531H427.016V89H382.016ZM432.328 89V82.1641L437.289 81.2266L453.383 60.8359L438.227 39.9766L433.617 39V32.125H455.844V39L450.414 39.5078L460.18 53.1797L469.945 39.5078L464.633 39V32.125H486.547V39L481.508 39.9766L466.938 59.8203L483.266 81.1875L488.695 82.1641V89H465.922V82.1641L470.805 81.6953L460.258 67.2422L449.477 81.6953L454.242 82.1641V89H432.328ZM213.188 164V157.164L219.242 155.992V115.172L213.188 114V107.125H236.43V114L230.648 115.172V134.742L250.219 114.586L250.297 114.469L244.672 114V107.125H268.07V114L262.719 115.055L246.273 131.773L264.516 156.188L270.102 157.164V164H245.922V157.164L251.234 156.695H251.273L238.734 139.43L230.648 147.633V155.992L236.43 157.164V164H213.188ZM272.992 164V157.164L277.055 156.578L295.141 107.125H306.82L324.789 156.578L328.852 157.164V164H309.477V157.164L313.422 156.461L310.922 148.648H290.922L288.422 156.461L292.367 157.164V164H272.992ZM293.617 140.25H308.227L301.586 120.758L301.039 119.039H300.805L300.219 120.875L293.617 140.25ZM355.844 164.82C351.651 164.82 347.836 164.352 344.398 163.414C340.961 162.477 337.576 160.849 334.242 158.531V144.781H343.07L344.281 152.867C345.427 153.857 347.029 154.664 349.086 155.289C351.169 155.888 353.422 156.188 355.844 156.188C358.943 156.188 361.312 155.562 362.953 154.312C364.594 153.036 365.414 151.318 365.414 149.156C365.414 147.125 364.633 145.419 363.07 144.039C361.534 142.633 358.826 141.331 354.945 140.133C348.201 138.18 343.174 135.862 339.867 133.18C336.56 130.497 334.906 126.826 334.906 122.164C334.906 119.091 335.753 116.383 337.445 114.039C339.164 111.669 341.534 109.807 344.555 108.453C347.576 107.099 351.065 106.396 355.023 106.344C359.398 106.292 363.266 106.812 366.625 107.906C370.01 109 372.927 110.523 375.375 112.477V125.289H366.82L365.336 117.477C364.346 116.852 363.005 116.305 361.312 115.836C359.646 115.367 357.745 115.133 355.609 115.133C352.875 115.133 350.635 115.745 348.891 116.969C347.146 118.193 346.273 119.911 346.273 122.125C346.273 124.026 347.081 125.615 348.695 126.891C350.336 128.141 353.344 129.469 357.719 130.875C363.995 132.62 368.747 134.924 371.977 137.789C375.232 140.654 376.859 144.417 376.859 149.078C376.859 152.333 375.987 155.133 374.242 157.477C372.497 159.82 370.036 161.63 366.859 162.906C363.708 164.182 360.036 164.82 355.844 164.82ZM404.594 164.82C400.401 164.82 396.586 164.352 393.148 163.414C389.711 162.477 386.326 160.849 382.992 158.531V144.781H391.82L393.031 152.867C394.177 153.857 395.779 154.664 397.836 155.289C399.919 155.888 402.172 156.188 404.594 156.188C407.693 156.188 410.062 155.562 411.703 154.312C413.344 153.036 414.164 151.318 414.164 149.156C414.164 147.125 413.383 145.419 411.82 144.039C410.284 142.633 407.576 141.331 403.695 140.133C396.951 138.18 391.924 135.862 388.617 133.18C385.31 130.497 383.656 126.826 383.656 122.164C383.656 119.091 384.503 116.383 386.195 114.039C387.914 111.669 390.284 109.807 393.305 108.453C396.326 107.099 399.815 106.396 403.773 106.344C408.148 106.292 412.016 106.812 415.375 107.906C418.76 109 421.677 110.523 424.125 112.477V125.289H415.57L414.086 117.477C413.096 116.852 411.755 116.305 410.062 115.836C408.396 115.367 406.495 115.133 404.359 115.133C401.625 115.133 399.385 115.745 397.641 116.969C395.896 118.193 395.023 119.911 395.023 122.125C395.023 124.026 395.831 125.615 397.445 126.891C399.086 128.141 402.094 129.469 406.469 130.875C412.745 132.62 417.497 134.924 420.727 137.789C423.982 140.654 425.609 144.417 425.609 149.078C425.609 152.333 424.737 155.133 422.992 157.477C421.247 159.82 418.786 161.63 415.609 162.906C412.458 164.182 408.786 164.82 404.594 164.82ZM429.555 164V157.164L433.617 156.578L451.703 107.125H463.383L481.352 156.578L485.414 157.164V164H466.039V157.164L469.984 156.461L467.484 148.648H447.484L444.984 156.461L448.93 157.164V164H429.555ZM450.18 140.25H464.789L458.148 120.758L457.602 119.039H457.367L456.781 120.875L450.18 140.25Z" fill="white"/>
<mask id="mask0" mask-type="alpha" maskUnits="userSpaceOnUse" x="0" y="3" width="173" height="194">
<path fill-rule="evenodd" clip-rule="evenodd" d="M76.3318 5.79173C82.5331 2.21227 90.1738 2.21201 96.3747 5.79205C107.417 12.1672 118.459 18.5244 129.502 24.9151C140.585 31.3042 151.635 37.6934 162.677 44.057C168.88 47.6316 172.707 54.2437 172.707 61.4027C172.707 74.1749 172.707 86.9292 172.707 99.7169C172.707 112.466 172.707 125.249 172.707 138.014C172.707 145.152 168.903 151.749 162.725 155.324C151.667 161.722 140.601 168.12 129.502 174.519C118.458 180.866 107.415 187.248 96.3717 193.636C90.1739 197.222 82.5329 197.222 76.3348 193.637C65.289 187.248 54.2354 180.867 43.1484 174.519C32.0929 168.12 21.0374 161.722 9.98197 155.324C3.80412 151.749 0 145.152 0 138.014C0 125.249 0 112.466 0 99.7169C0 86.9292 0 74.1749 0 61.4027C0 54.2437 3.82712 47.6319 10.0295 44.0567C21.0691 37.6932 32.1087 31.3041 43.1484 24.9151C54.2343 18.5243 65.2869 12.167 76.3318 5.79173Z" fill="#0E0E0E"/>
</mask>
<g mask="url(#mask0)">
<path fill-rule="evenodd" clip-rule="evenodd" d="M86.3533 0C100.736 8.3239 115.119 16.5912 129.502 24.9151C143.941 33.239 158.324 41.5629 172.707 49.8301C172.707 66.4779 172.707 83.0691 172.707 99.7169C172.707 116.308 172.707 132.956 172.707 149.547C158.324 157.871 143.941 166.195 129.502 174.519C115.119 182.786 100.736 191.11 86.3533 199.434C71.9706 191.11 57.5878 182.786 43.1484 174.519C28.7656 166.195 14.3828 157.871 0 149.547C0 132.956 0 116.308 0 99.7169C0 83.0691 0 66.4779 0 49.8301C14.3828 41.5629 28.7656 33.239 43.1484 24.9151C57.5878 16.5912 71.9706 8.3239 86.3533 0Z" fill="#0E0E0E"/>
<path fill-rule="evenodd" clip-rule="evenodd" d="M86.3035 199.434C71.9207 191.11 57.538 182.786 43.1552 174.519C28.7724 166.195 14.3896 157.871 -0.0498047 149.547C-0.0498047 132.956 -0.0498047 116.308 -0.0498047 99.7169C-0.0498047 83.0691 -0.0498047 66.4779 -0.0498047 49.8301C14.3896 41.5629 28.7724 33.239 43.1552 24.9151C57.538 16.5912 71.9207 8.3239 86.3035 0V199.434Z" fill="white" fill-opacity="0.101961"/>
</g>
<path fill-rule="evenodd" clip-rule="evenodd" d="M16.3434 141.971C15.7253 141.613 15.3447 140.953 15.3447 140.239V60.3269C15.3447 59.6129 15.7253 58.9531 16.3434 58.5956L39.6628 45.1085C40.4485 44.654 41.4419 44.7858 42.082 45.4293L49.8644 53.2529C50.7905 54.1838 50.5834 55.7394 49.4461 56.3957L31.0111 67.0331C30.392 67.3903 30.0106 68.0507 30.0106 68.7654V131.801C30.0106 132.515 30.392 133.176 31.0111 133.533L49.4461 144.171C50.5834 144.827 50.7905 146.382 49.8644 147.313L42.082 155.137C41.4419 155.78 40.4485 155.912 39.6628 155.458L16.3434 141.971ZM57.1815 150.355C57.8212 149.712 58.8136 149.58 59.5992 150.033L85.5238 164.995C86.1419 165.352 86.9033 165.353 87.5218 164.996L113.503 150.031C114.288 149.579 115.28 149.711 115.919 150.354L123.702 158.178C124.629 159.109 124.421 160.666 123.283 161.322L87.5218 181.927C86.9033 182.283 86.1419 182.283 85.5237 181.926L49.8164 161.322C48.6791 160.666 48.472 159.11 49.398 158.179L57.1815 150.355ZM143.091 68.7654C143.091 68.0507 142.71 67.3903 142.091 67.0331L123.656 56.3957C122.518 55.7394 122.311 54.1838 123.237 53.2529L131.02 45.4293C131.66 44.7858 132.653 44.654 133.439 45.1085L156.758 58.5956C157.376 58.9531 157.757 59.6129 157.757 60.3269V140.239C157.757 140.953 157.376 141.613 156.758 141.971L133.439 155.458C132.653 155.912 131.66 155.78 131.02 155.137L123.237 147.313C122.311 146.382 122.518 144.827 123.656 144.171L142.091 133.533C142.71 133.176 143.091 132.515 143.091 131.801V68.7654ZM115.919 50.2125C115.28 50.8551 114.288 50.9875 113.503 50.5351L87.5218 35.5699C86.9033 35.2137 86.1419 35.214 85.5238 35.5707L59.5992 50.5332C58.8136 50.9867 57.8212 50.8546 57.1815 50.2115L49.398 42.3869C48.472 41.456 48.6791 39.9004 49.8164 39.2441L85.5237 18.6398C86.1419 18.2831 86.9033 18.2828 87.5218 18.6392L123.283 39.2447C124.421 39.9005 124.629 41.4568 123.702 42.3881L115.919 50.2125Z" fill="#FFE400"/>
<path d="M129.639 153.746L140.01 143.376L43.4277 46.7939L33.0573 57.1642L129.639 153.746Z" fill="#FFE400"/>
<path fill-rule="evenodd" clip-rule="evenodd" d="M126.896 66.7056C128.038 67.3615 128.245 68.9229 127.314 69.8541L103.509 93.6594C102.727 94.4404 101.461 94.4404 100.68 93.6594L93.1481 86.1274C92.3663 85.3456 92.3672 84.0777 93.1501 83.297L112.06 64.4394C114.382 62.0611 118.006 61.6647 120.781 63.1936L126.896 66.7056Z" fill="#FFE400"/>
<path fill-rule="evenodd" clip-rule="evenodd" d="M46.1875 133.809C45.0525 133.149 44.8499 131.593 45.7781 130.665L69.593 106.85C70.3741 106.069 71.6404 106.069 72.4215 106.85L79.9554 114.384C80.7365 115.165 80.7365 116.432 79.9554 117.213L61.0412 136.127C58.663 138.505 55.0956 138.901 52.3209 137.373L46.1875 133.809Z" fill="#FFE400"/>
</svg>
