<svg width="173" height="200" viewBox="0 0 173 200" fill="none" xmlns="http://www.w3.org/2000/svg">
<mask id="mask0" mask-type="alpha" maskUnits="userSpaceOnUse" x="0" y="3" width="173" height="194">
<path fill-rule="evenodd" clip-rule="evenodd" d="M76.3318 5.79173C82.533 2.21227 90.1738 2.21201 96.3747 5.79205C107.417 12.1672 118.459 18.5244 129.502 24.9151C140.585 31.3042 151.635 37.6934 162.677 44.057C168.88 47.6316 172.707 54.2437 172.707 61.4027C172.707 74.1749 172.707 86.9292 172.707 99.7169C172.707 112.466 172.707 125.249 172.707 138.014C172.707 145.152 168.903 151.749 162.725 155.324C151.667 161.722 140.601 168.12 129.502 174.519C118.458 180.866 107.415 187.248 96.3717 193.636C90.1739 197.222 82.5329 197.222 76.3348 193.637C65.289 187.248 54.2354 180.867 43.1484 174.519C32.0929 168.12 21.0374 161.722 9.98197 155.324C3.80412 151.749 0 145.152 0 138.014C0 125.249 0 112.466 0 99.7169C0 86.9292 0 74.1749 0 61.4027C0 54.2437 3.82712 47.6319 10.0295 44.0567C21.0691 37.6932 32.1087 31.3041 43.1484 24.9151C54.2343 18.5243 65.2869 12.167 76.3318 5.79173Z" fill="#0E0E0E"/>
</mask>
<g mask="url(#mask0)">
<path fill-rule="evenodd" clip-rule="evenodd" d="M86.3533 0C100.736 8.3239 115.119 16.5912 129.502 24.9151C143.941 33.239 158.324 41.5629 172.707 49.8301C172.707 66.4779 172.707 83.0691 172.707 99.7169C172.707 116.308 172.707 132.956 172.707 149.547C158.324 157.871 143.941 166.195 129.502 174.519C115.119 182.786 100.736 191.11 86.3533 199.434C71.9706 191.11 57.5878 182.786 43.1484 174.519C28.7656 166.195 14.3828 157.871 0 149.547C0 132.956 0 116.308 0 99.7169C0 83.0691 0 66.4779 0 49.8301C14.3828 41.5629 28.7656 33.239 43.1484 24.9151C57.5878 16.5912 71.9706 8.3239 86.3533 0Z" fill="#0E0E0E"/>
<path fill-rule="evenodd" clip-rule="evenodd" d="M86.3035 199.434C71.9207 191.11 57.538 182.786 43.1552 174.519C28.7724 166.195 14.3896 157.871 -0.0498047 149.547C-0.0498047 132.956 -0.0498047 116.308 -0.0498047 99.7169C-0.0498047 83.0691 -0.0498047 66.4779 -0.0498047 49.8301C14.3896 41.5629 28.7724 33.239 43.1552 24.9151C57.538 16.5912 71.9207 8.3239 86.3035 0V199.434Z" fill="white" fill-opacity="0.101961"/>
</g>
<mask id="mask1" mask-type="alpha" maskUnits="userSpaceOnUse" x="0" y="3" width="173" height="194">
<path fill-rule="evenodd" clip-rule="evenodd" d="M76.3318 5.79173C82.533 2.21227 90.1738 2.21201 96.3747 5.79205C107.417 12.1672 118.459 18.5244 129.502 24.9151C140.585 31.3042 151.635 37.6934 162.677 44.057C168.88 47.6316 172.707 54.2437 172.707 61.4027C172.707 74.1749 172.707 86.9292 172.707 99.7169C172.707 112.466 172.707 125.249 172.707 138.014C172.707 145.152 168.903 151.749 162.725 155.324C151.667 161.722 140.601 168.12 129.502 174.519C118.458 180.866 107.415 187.248 96.3717 193.636C90.1739 197.222 82.5329 197.222 76.3348 193.637C65.289 187.248 54.2354 180.867 43.1484 174.519C32.0929 168.12 21.0374 161.722 9.98197 155.324C3.80412 151.749 0 145.152 0 138.014C0 125.249 0 112.466 0 99.7169C0 86.9292 0 74.1749 0 61.4027C0 54.2437 3.82712 47.6319 10.0295 44.0567C21.0691 37.6932 32.1087 31.3041 43.1484 24.9151C54.2343 18.5243 65.2869 12.167 76.3318 5.79173Z" fill="#0E0E0E"/>
</mask>
<g mask="url(#mask1)">
<path fill-rule="evenodd" clip-rule="evenodd" d="M86.3533 0C100.736 8.3239 115.119 16.5912 129.502 24.9151C143.941 33.239 158.324 41.5629 172.707 49.8301C172.707 66.4779 172.707 83.0691 172.707 99.7169C172.707 116.308 172.707 132.956 172.707 149.547C158.324 157.871 143.941 166.195 129.502 174.519C115.119 182.786 100.736 191.11 86.3533 199.434C71.9706 191.11 57.5878 182.786 43.1484 174.519C28.7656 166.195 14.3828 157.871 0 149.547C0 132.956 0 116.308 0 99.7169C0 83.0691 0 66.4779 0 49.8301C14.3828 41.5629 28.7656 33.239 43.1484 24.9151C57.5878 16.5912 71.9706 8.3239 86.3533 0Z" fill="#0E0E0E"/>
<path fill-rule="evenodd" clip-rule="evenodd" d="M86.3035 199.434C71.9207 191.11 57.538 182.786 43.1552 174.519C28.7724 166.195 14.3896 157.871 -0.0498047 149.547C-0.0498047 132.956 -0.0498047 116.308 -0.0498047 99.7169C-0.0498047 83.0691 -0.0498047 66.4779 -0.0498047 49.8301C14.3896 41.5629 28.7724 33.239 43.1552 24.9151C57.538 16.5912 71.9207 8.3239 86.3035 0V199.434Z" fill="white" fill-opacity="0.101961"/>
</g>
<path fill-rule="evenodd" clip-rule="evenodd" d="M16.3434 141.971C15.7253 141.613 15.3447 140.953 15.3447 140.239V60.327C15.3447 59.613 15.7253 58.9531 16.3434 58.5957L39.6628 45.1085C40.4485 44.6541 41.4419 44.7858 42.082 45.4293L49.8644 53.2529C50.7905 54.1839 50.5834 55.7394 49.4461 56.3957L31.0111 67.0331C30.392 67.3903 30.0106 68.0507 30.0106 68.7654V131.801C30.0106 132.515 30.392 133.176 31.0111 133.533L49.4461 144.171C50.5834 144.827 50.7905 146.382 49.8644 147.313L42.082 155.137C41.4419 155.78 40.4485 155.912 39.6628 155.458L16.3434 141.971ZM57.1815 150.355C57.8212 149.712 58.8136 149.58 59.5992 150.033L85.5238 164.995C86.1419 165.352 86.9033 165.353 87.5218 164.996L113.503 150.031C114.288 149.579 115.28 149.711 115.919 150.354L123.702 158.178C124.629 159.109 124.421 160.666 123.283 161.322L87.5218 181.927C86.9033 182.283 86.1419 182.283 85.5237 181.926L49.8164 161.322C48.6791 160.666 48.472 159.11 49.398 158.179L57.1815 150.355ZM143.091 68.7654C143.091 68.0507 142.71 67.3903 142.091 67.0331L123.656 56.3957C122.518 55.7394 122.311 54.1839 123.237 53.2529L131.02 45.4293C131.66 44.7858 132.653 44.6541 133.439 45.1085L156.758 58.5957C157.376 58.9531 157.757 59.613 157.757 60.3269V140.239C157.757 140.953 157.376 141.613 156.758 141.971L133.439 155.458C132.653 155.912 131.66 155.78 131.02 155.137L123.237 147.313C122.311 146.382 122.518 144.827 123.656 144.171L142.091 133.533C142.71 133.176 143.091 132.515 143.091 131.801V68.7654ZM115.919 50.2125C115.28 50.8551 114.288 50.9875 113.503 50.5351L87.5218 35.5699C86.9033 35.2137 86.1419 35.214 85.5238 35.5708L59.5992 50.5333C58.8136 50.9867 57.8212 50.8546 57.1815 50.2115L49.398 42.3869C48.472 41.456 48.6791 39.9004 49.8164 39.2441L85.5237 18.6398C86.1419 18.2831 86.9033 18.2828 87.5218 18.6392L123.283 39.2447C124.421 39.9005 124.629 41.4568 123.702 42.3881L115.919 50.2125Z" fill="#FF9A00"/>
<path d="M129.639 153.746L140.01 143.376L43.4277 46.7939L33.0573 57.1642L129.639 153.746Z" fill="#FF9A00"/>
<path fill-rule="evenodd" clip-rule="evenodd" d="M126.896 66.7056C128.038 67.3615 128.245 68.9229 127.314 69.8541L103.509 93.6594C102.727 94.4404 101.461 94.4404 100.68 93.6594L93.1481 86.1274C92.3663 85.3456 92.3672 84.0777 93.1501 83.297L112.06 64.4394C114.382 62.0611 118.006 61.6647 120.781 63.1936L126.896 66.7056Z" fill="#FF9A00"/>
<path fill-rule="evenodd" clip-rule="evenodd" d="M46.1875 133.809C45.0525 133.149 44.8499 131.593 45.7781 130.665L69.593 106.85C70.3741 106.069 71.6404 106.069 72.4215 106.85L79.9554 114.384C80.7365 115.165 80.7365 116.432 79.9554 117.213L61.0412 136.127C58.663 138.505 55.0956 138.901 52.3209 137.373L46.1875 133.809Z" fill="#FF9A00"/>
</svg>
