<svg width="62" height="62" viewBox="0 0 62 62" fill="none" xmlns="http://www.w3.org/2000/svg">
<path d="M33.2364 7.74993L57.8452 50.3749C58.072 50.7676 58.1913 51.2131 58.1913 51.6666C58.1913 52.12 58.072 52.5655 57.8452 52.9582C57.6185 53.3509 57.2924 53.6771 56.8997 53.9038C56.507 54.1305 56.0615 54.2499 55.6081 54.2499H6.3904C5.93693 54.2499 5.49146 54.1305 5.09875 53.9038C4.70605 53.6771 4.37994 53.3509 4.15321 52.9582C3.92649 52.5655 3.80713 52.12 3.80713 51.6666C3.80713 51.2131 3.9265 50.7676 4.15323 50.3749L28.7621 7.74993C28.9888 7.35724 29.3149 7.03116 29.7076 6.80444C30.1003 6.57773 30.5458 6.45837 30.9992 6.45837C31.4527 6.45837 31.8981 6.57773 32.2908 6.80444C32.6835 7.03116 33.0097 7.35724 33.2364 7.74993ZM28.4159 41.3333V46.4999H33.5826V41.3333H28.4159ZM28.4159 23.2499V36.1666H33.5826V23.2499H28.4159Z" fill="#FFF500"/>
</svg>
