<svg width="62" height="62" viewBox="0 0 62 62" fill="none" xmlns="http://www.w3.org/2000/svg">
<path d="M31 2.58337L9.77275 7.30054C9.19909 7.42806 8.68605 7.74737 8.31831 8.20575C7.95056 8.66414 7.7501 9.23421 7.75 9.82187V35.6242C7.75061 38.1754 8.38094 40.687 9.58507 42.9362C10.7892 45.1854 12.5299 47.1026 14.6527 48.5176L31 59.4167L47.3473 48.5176C49.4705 47.1023 51.2114 45.1847 52.4155 42.9351C53.6197 40.6854 54.2498 38.1733 54.25 35.6216V9.82187C54.2499 9.23421 54.0494 8.66414 53.6817 8.20575C53.3139 7.74737 52.8009 7.42806 52.2272 7.30054L31 2.58337Z" fill="#FF3737"/>
<path d="M30.9419 26.0756L38.9341 18.0834L41.2171 20.3664L33.2249 28.3586L41.2171 36.3508L38.9341 38.6338L30.9419 30.6416L22.9497 38.6338L20.6667 36.3508L28.6589 28.3586L20.6667 20.3664L22.9497 18.0834L30.9419 26.0756Z" fill="white"/>
</svg>
