<svg width="61" height="61" viewBox="0 0 61 61" fill="none" xmlns="http://www.w3.org/2000/svg">
<path d="M30.5 5.0835C36.5668 5.0835 42.3852 7.49353 46.6751 11.7834C50.965 16.0733 53.375 21.8917 53.375 27.9585V47.021C53.3759 48.922 52.7678 50.7733 51.6399 52.3036C50.5119 53.8338 48.9234 54.9624 47.1073 55.524C45.2911 56.0857 43.3428 56.0507 41.5479 55.4243C39.7531 54.7979 38.2061 53.613 37.1338 52.0433C36.4698 53.2193 35.5054 54.1977 34.3391 54.8786C33.1728 55.5594 31.8466 55.9182 30.4962 55.9182C29.1457 55.9182 27.8195 55.5594 26.6533 54.8786C25.487 54.1977 24.5226 53.2193 23.8586 52.0433C22.809 53.5756 21.306 54.7408 19.5606 55.3757C17.8152 56.0106 15.9149 56.0833 14.1261 55.5835C12.3373 55.0838 10.7498 54.0367 9.58615 52.5891C8.42254 51.1414 7.74121 49.3659 7.63771 47.5115L7.625 47.0185V27.9585C7.625 21.8917 10.035 16.0733 14.3249 11.7834C18.6148 7.49353 24.4332 5.0835 30.5 5.0835ZM30.5 10.1668C25.8869 10.1668 21.4542 11.9584 18.1368 15.1639C14.8193 18.3694 12.8767 22.7381 12.7185 27.3485L12.7083 27.9585V46.8837L12.7134 47.2345C12.7572 47.9964 13.0287 48.7277 13.4927 49.3336C13.9567 49.9396 14.5919 50.3923 15.3161 50.6332C16.0402 50.8742 16.8201 50.8922 17.5546 50.685C18.2891 50.4779 18.9446 50.055 19.4361 49.4712L19.6598 49.1763C20.1465 48.4627 20.807 47.8849 21.579 47.4974C22.351 47.1099 23.2089 46.9255 24.072 46.9616C24.935 46.9977 25.7746 47.2532 26.5115 47.7038C27.2484 48.1545 27.8583 48.7855 28.2837 49.5372C28.5041 49.9294 28.8249 50.256 29.213 50.4836C29.6011 50.7111 30.0428 50.8314 30.4927 50.8322C30.9426 50.833 31.3847 50.7142 31.7736 50.488C32.1625 50.2618 32.4844 49.9363 32.7062 49.5449C33.113 48.8226 33.6904 48.2108 34.3879 47.7628C35.0853 47.3148 35.8818 47.0442 36.7078 46.9745C37.5339 46.9049 38.3644 47.0383 39.1271 47.3631C39.8898 47.688 40.5614 48.1944 41.0835 48.8383L41.33 49.1687C41.7713 49.8167 42.4015 50.3129 43.1349 50.5897C43.8683 50.8666 44.6692 50.9106 45.4286 50.7159C46.1879 50.5211 46.8687 50.097 47.3784 49.5013C47.888 48.9056 48.2016 48.1673 48.2764 47.387L48.2917 47.021V27.9585C48.2917 23.2399 46.4172 18.7145 43.0806 15.3779C39.744 12.0413 35.2186 10.1668 30.5 10.1668ZM30.5 32.0001C33.3085 32.0001 34 32.9926 34 36.5001C34 40.0076 33.3085 41.5001 30.5 41.5001C27.6915 41.5001 26.8417 40.0076 26.8417 36.5001C26.8417 32.9926 27.6915 32.0001 30.5 32.0001ZM24.1458 20.3335C25.157 20.3335 26.1267 20.7352 26.8417 21.4501C27.5567 22.1651 27.9583 23.1349 27.9583 24.146C27.9583 25.1571 27.5567 26.1269 26.8417 26.8418C26.1267 27.5568 25.157 27.9585 24.1458 27.9585C23.1347 27.9585 22.165 27.5568 21.45 26.8418C20.735 26.1269 20.3333 25.1571 20.3333 24.146C20.3333 23.1349 20.735 22.1651 21.45 21.4501C22.165 20.7352 23.1347 20.3335 24.1458 20.3335ZM36.8542 20.3335C37.8653 20.3335 38.835 20.7352 39.55 21.4501C40.265 22.1651 40.6667 23.1349 40.6667 24.146C40.6667 25.1571 40.265 26.1269 39.55 26.8418C38.835 27.5568 37.8653 27.9585 36.8542 27.9585C35.843 27.9585 34.8733 27.5568 34.1583 26.8418C33.4433 26.1269 33.0417 25.1571 33.0417 24.146C33.0417 23.1349 33.4433 22.1651 34.1583 21.4501C34.8733 20.7352 35.843 20.3335 36.8542 20.3335Z" fill="#3E414E"/>
</svg>
