<svg width="76" height="76" viewBox="0 0 76 76" fill="none" xmlns="http://www.w3.org/2000/svg">
<path d="M22.1297 38.9415C22.1297 36.895 20.7086 35.6736 18.2008 35.6736C17.1779 35.6736 16.4848 35.7722 16.1213 35.8712V42.4428C16.551 42.5403 17.0792 42.5737 17.8036 42.5737C20.4792 42.5737 22.1297 41.2203 22.1297 38.9415Z" fill="white"/>
<path d="M37.6516 35.7397C36.5278 35.7397 35.8031 35.8387 35.3723 35.9377V50.4979C35.8023 50.5985 36.4958 50.5985 37.1233 50.5985C41.679 50.6303 44.6507 48.1223 44.6507 42.8061C44.6841 38.182 41.9759 35.7397 37.6516 35.7397Z" fill="white"/>
<path d="M67.3936 27.1849H65.5687V18.3795C65.5687 18.3245 65.56 18.2692 65.5527 18.2136C65.5498 17.864 65.4386 17.5205 65.1992 17.2484L50.546 0.509701C50.5416 0.505424 50.5373 0.503906 50.5343 0.499215C50.447 0.401662 50.3451 0.32053 50.2375 0.250297C50.2056 0.22891 50.1735 0.210973 50.1401 0.192483C50.0468 0.141568 49.9479 0.0993462 49.8461 0.0688525C49.8185 0.0611255 49.7936 0.0498111 49.766 0.0426361C49.6554 0.0164197 49.5404 0 49.424 0H13.412C11.7675 0 10.4316 1.33745 10.4316 2.98052V27.1842H8.60705C6.25461 27.1842 4.34717 29.0908 4.34717 31.444V53.5962C4.34717 55.9478 6.25461 57.8557 8.60705 57.8557H10.4317V73.0195C10.4317 74.6624 11.7676 76 13.4121 76H62.5884C64.2314 76 65.5688 74.6626 65.5688 73.0195V57.8557H67.3938C69.7455 57.8557 71.6534 55.9478 71.6534 53.5962V31.4447C71.6532 29.0916 69.7454 27.1849 67.3936 27.1849ZM13.412 2.98108H47.9338V18.2298C47.9338 19.0531 48.6017 19.7199 49.424 19.7199H62.5883V27.1858H13.412V2.98108ZM49.9988 42.6393C49.9988 46.8996 48.4475 49.837 46.2982 51.654C43.9565 53.6018 40.3898 54.5259 36.0329 54.5259C33.4251 54.5259 31.5766 54.3607 30.3204 54.1963V32.3379C32.1692 32.0414 34.581 31.8762 37.1234 31.8762C41.3473 31.8762 44.0884 32.6362 46.2355 34.2531C48.5457 35.9702 49.9988 38.7101 49.9988 42.6393ZM11.1353 54.2953V32.3379C12.6863 32.0752 14.8665 31.8762 17.9372 31.8762C21.0405 31.8762 23.2532 32.4706 24.7384 33.66C26.1585 34.7819 27.1137 36.6313 27.1137 38.8106C27.1137 40.9905 26.3893 42.8393 25.0676 44.0932C23.3508 45.7114 20.8088 46.4383 17.8364 46.4383C17.1772 46.4383 16.5808 46.4048 16.1207 46.3385V54.2959H11.1353V54.2953ZM62.5884 72.2127H13.412V57.8557H62.5883V72.2127H62.5884ZM66.9068 36.1685H58.3535V41.2532H66.3444V45.3477H58.3535V54.2955H53.3044V32.0414H66.9068V36.1685Z" fill="white"/>
</svg>
