<svg width="62" height="62" viewBox="0 0 62 62" fill="none" xmlns="http://www.w3.org/2000/svg">
<path d="M30.9998 5.16675C31.685 5.16675 32.3421 5.43892 32.8265 5.92339C33.311 6.40786 33.5832 7.06494 33.5832 7.75008V15.5001C33.5832 16.1852 33.311 16.8423 32.8265 17.3268C32.3421 17.8112 31.685 18.0834 30.9998 18.0834C30.3147 18.0834 29.6576 17.8112 29.1731 17.3268C28.6887 16.8423 28.4165 16.1852 28.4165 15.5001V7.75008C28.4165 7.06494 28.6887 6.40786 29.1731 5.92339C29.6576 5.43892 30.3147 5.16675 30.9998 5.16675ZM30.9998 43.9168C31.685 43.9168 32.3421 44.1889 32.8265 44.6734C33.311 45.1579 33.5832 45.8149 33.5832 46.5001V54.2501C33.5832 54.9352 33.311 55.5923 32.8265 56.0768C32.3421 56.5612 31.685 56.8334 30.9998 56.8334C30.3147 56.8334 29.6576 56.5612 29.1731 56.0768C28.6887 55.5923 28.4165 54.9352 28.4165 54.2501V46.5001C28.4165 45.8149 28.6887 45.1579 29.1731 44.6734C29.6576 44.1889 30.3147 43.9168 30.9998 43.9168ZM56.8332 31.0001C56.8332 31.6852 56.561 32.3423 56.0765 32.8268C55.5921 33.3112 54.935 33.5834 54.2498 33.5834H46.4998C45.8147 33.5834 45.1576 33.3112 44.6731 32.8268C44.1887 32.3423 43.9165 31.6852 43.9165 31.0001C43.9165 30.3149 44.1887 29.6579 44.6731 29.1734C45.1576 28.6889 45.8147 28.4167 46.4998 28.4167H54.2498C54.935 28.4167 55.5921 28.6889 56.0765 29.1734C56.561 29.6579 56.8332 30.3149 56.8332 31.0001ZM18.0832 31.0001C18.0832 31.6852 17.811 32.3423 17.3265 32.8268C16.8421 33.3112 16.185 33.5834 15.4998 33.5834H7.74984C7.06469 33.5834 6.40761 33.3112 5.92314 32.8268C5.43868 32.3423 5.1665 31.6852 5.1665 31.0001C5.1665 30.3149 5.43868 29.6579 5.92314 29.1734C6.40761 28.6889 7.06469 28.4167 7.74984 28.4167H15.4998C16.185 28.4167 16.8421 28.6889 17.3265 29.1734C17.811 29.6579 18.0832 30.3149 18.0832 31.0001ZM49.2666 49.2668C48.7821 49.7511 48.1252 50.0232 47.4402 50.0232C46.7552 50.0232 46.0982 49.7511 45.6138 49.2668L40.1345 43.7876C39.6639 43.3004 39.4035 42.6478 39.4094 41.9705C39.4153 41.2931 39.687 40.6452 40.166 40.1662C40.6449 39.6872 41.2929 39.4156 41.9702 39.4097C42.6476 39.4038 43.3001 39.6642 43.7873 40.1348L49.2666 45.6114C49.5068 45.8513 49.6973 46.1363 49.8273 46.4499C49.9573 46.7635 50.0242 47.0996 50.0242 47.4391C50.0242 47.7786 49.9573 48.1148 49.8273 48.4284C49.6973 48.742 49.5068 49.0269 49.2666 49.2668ZM21.8652 21.8654C21.3807 22.3497 20.7238 22.6218 20.0388 22.6218C19.3537 22.6218 18.6968 22.3497 18.2123 21.8654L12.7357 16.3887C12.2509 15.9044 11.9785 15.2472 11.9782 14.562C11.978 13.8767 12.25 13.2194 12.7344 12.7346C13.2188 12.2499 13.8759 11.9774 14.5612 11.9772C15.2465 11.9769 15.9038 12.2489 16.3885 12.7333L21.8652 18.2126C22.3495 18.697 22.6215 19.354 22.6215 20.039C22.6215 20.724 22.3495 21.381 21.8652 21.8654ZM12.7357 49.2668C12.2514 48.7824 11.9793 48.1254 11.9793 47.4404C11.9793 46.7554 12.2514 46.0984 12.7357 45.614L18.2149 40.1348C18.4532 39.888 18.7383 39.6912 19.0535 39.5558C19.3686 39.4204 19.7076 39.3492 20.0506 39.3462C20.3936 39.3432 20.7338 39.4086 21.0513 39.5385C21.3688 39.6684 21.6572 39.8602 21.8998 40.1027C22.1423 40.3453 22.3342 40.6337 22.464 40.9512C22.5939 41.2687 22.6593 41.6089 22.6563 41.9519C22.6533 42.2949 22.5821 42.6339 22.4467 42.949C22.3113 43.2642 22.1145 43.5493 21.8678 43.7876L16.3911 49.2668C16.1512 49.507 15.8663 49.6976 15.5526 49.8276C15.239 49.9576 14.9029 50.0245 14.5634 50.0245C14.2239 50.0245 13.8877 49.9576 13.5741 49.8276C13.2605 49.6976 12.9756 49.507 12.7357 49.2668ZM40.1345 21.8654C39.6502 21.381 39.3781 20.724 39.3781 20.039C39.3781 19.354 39.6502 18.697 40.1345 18.2126L45.6112 12.7333C46.0956 12.2486 46.7527 11.9761 47.438 11.9759C48.1232 11.9756 48.7806 12.2476 49.2653 12.732C49.75 13.2164 50.0225 13.8736 50.0227 14.5588C50.023 15.2441 49.751 15.9014 49.2666 16.3862L43.7873 21.8654C43.3029 22.3497 42.6459 22.6218 41.9609 22.6218C41.2759 22.6218 40.619 22.3497 40.1345 21.8654Z" fill="white"/>
</svg>
