<svg width="62" height="62" viewBox="0 0 62 62" fill="none" xmlns="http://www.w3.org/2000/svg">
<path d="M33.2364 7.75005L57.8452 50.375C58.072 50.7678 58.1913 51.2132 58.1913 51.6667C58.1913 52.1202 58.072 52.5656 57.8452 52.9584C57.6185 53.3511 57.2924 53.6772 56.8997 53.9039C56.507 54.1307 56.0615 54.25 55.6081 54.25H6.3904C5.93693 54.25 5.49146 54.1307 5.09875 53.9039C4.70605 53.6772 4.37994 53.3511 4.15321 52.9584C3.92649 52.5656 3.80713 52.1202 3.80713 51.6667C3.80713 51.2132 3.9265 50.7678 4.15323 50.375L28.7621 7.75005C28.9888 7.35736 29.3149 7.03128 29.7076 6.80456C30.1003 6.57785 30.5458 6.4585 30.9992 6.4585C31.4527 6.4585 31.8981 6.57785 32.2908 6.80456C32.6835 7.03128 33.0097 7.35736 33.2364 7.75005ZM28.4159 41.3334V46.5H33.5826V41.3334H28.4159ZM28.4159 23.25V36.1667H33.5826V23.25H28.4159Z" fill="#FFF500"/>
</svg>
